<?xml version="1.0" encoding="utf-8"?>
<!-- Generator: Adobe Illustrator 22.1.0, SVG Export Plug-In . SVG Version: 6.00 Build 0)  -->
<svg version="1.1" xmlns="http://www.w3.org/2000/svg" xmlns:xlink="http://www.w3.org/1999/xlink" x="0px" y="0px"
	 viewBox="0 0 100 100" style="enable-background:new 0 0 100 100;" xml:space="preserve">
<style type="text/css">
	.st0{fill:#FFFFFF;}
	.st1{display:none;}
	.st2{display:inline;}
	.st3{fill:none;}
	.st4{fill:#00A289;}
	.st5{fill:#6D6D6D;}
</style>
<g id="Calque_6">
	<rect class="st0" width="100" height="100"/>
</g>
<g id="Calque_1" class="st1">
	<g class="st2">
		<path class="st3" d="M49.7,30.2c-10.8,0-19.6,8.8-19.6,19.6c0,10.8,8.8,19.6,19.6,19.6c10.8,0,19.6-8.8,19.6-19.6
			C69.2,39,60.5,30.2,49.7,30.2z M49.7,67.4c-9.7,0-17.7-7.9-17.7-17.7c0-9.7,7.9-17.7,17.7-17.7c9.7,0,17.7,7.9,17.7,17.7
			C67.3,59.5,59.4,67.4,49.7,67.4z"/>
		<path class="st4" d="M85.3,44.6l9.6-1.6c-0.6-3.9-1.8-7.8-3.4-11.4l-8.9,4C83.9,38.5,84.8,41.5,85.3,44.6z"/>
		<path class="st4" d="M83.5,63.2l9.1,3.4C94,62.9,94.9,59,95.3,55l-9.7-1C85.3,57.2,84.6,60.2,83.5,63.2z"/>
		<path class="st4" d="M55.5,86.1l1.6,9.6c3.9-0.6,7.8-1.8,11.4-3.4l-4-8.9C61.6,84.6,58.6,85.5,55.5,86.1z"/>
		<path class="st4" d="M85.9,3.3L76.1,13C59.3,1.2,36.7,2,20.7,15l0,0c-33,27.1-13.5,81.2,29,81.2v-9.7C21,86.5,2.6,53.3,20.8,28.9
			c0,0,0-0.1,0.1-0.1C32.3,13.6,53.4,10,69.1,20l-7.8,7.8l24.6,0L85.9,3.3z"/>
		<path class="st4" d="M86.9,77.2L79,71.5L79,71.5c-1.9,2.6-4,4.9-6.4,6.9l6.1,7.5C81.7,83.4,84.5,80.5,86.9,77.2L86.9,77.2z"/>
		<path class="st4" d="M49.8,29.2c-12.4,0-22.4,10-22.4,22.4C27.4,64,37.4,74,49.8,74c12.4,0,22.4-10,22.4-22.4
			C72.2,39.2,62.2,29.2,49.8,29.2z M49.8,71.2c-10.8,0-19.6-8.8-19.6-19.6c0-10.8,8.8-19.6,19.6-19.6c10.8,0,19.6,8.8,19.6,19.6
			C69.4,62.4,60.6,71.2,49.8,71.2z"/>
		<g>
			<path class="st4" d="M49.8,34.1c-9.7,0-17.5,7.9-17.5,17.5c0,9.7,7.9,17.5,17.5,17.5s17.5-7.9,17.5-17.5
				C67.4,41.9,59.5,34.1,49.8,34.1z M54.3,58c-0.8,0.9-2,1.4-3.5,1.6v2.3h-1.9v-2.3c-2.5-0.3-4.1-1.7-4.7-4.4l3-0.8
				c0.3,1.7,1.2,2.5,2.8,2.5c0.7,0,1.3-0.2,1.6-0.5C51.9,56,52,55.5,52,55c0-0.5-0.2-0.9-0.5-1.2c-0.3-0.3-1.1-0.6-2.3-1
				c-1.1-0.4-1.9-0.7-2.5-1.1c-0.6-0.4-1.1-0.9-1.5-1.5c-0.4-0.7-0.6-1.4-0.6-2.3c0-1.1,0.3-2.2,1-3.1c0.7-0.9,1.7-1.5,3.2-1.7v-1.8
				h1.9v1.8c2.2,0.3,3.6,1.5,4.2,3.7l-2.7,1.1c-0.5-1.5-1.3-2.3-2.4-2.3c-0.5,0-1,0.2-1.3,0.5c-0.3,0.3-0.5,0.7-0.5,1.2
				c0,0.5,0.2,0.9,0.5,1.1c0.3,0.3,1,0.6,2.1,1c1.2,0.4,2.1,0.8,2.7,1.2c0.7,0.4,1.2,0.9,1.6,1.6c0.4,0.7,0.6,1.4,0.6,2.3
				C55.5,55.9,55.1,57.1,54.3,58z"/>
		</g>
	</g>
</g>
<g id="Calque_2" class="st1">
	<g>
		<g class="st2">
			<g>
				<path class="st4" d="M80.1,66c0,17.2-13.9,31.1-31.1,31.1S17.9,83.2,17.9,66c0-17.2,13.9-31.1,31.1-31.1S80.1,48.8,80.1,66z"/>
			</g>
			<g>
				<path class="st4" d="M49,99c-18.2,0-33-14.8-33-33c0-18.2,14.8-33,33-33c18.2,0,33,14.8,33,33C82,84.2,67.2,99,49,99z M49,36.7
					c-16.1,0-29.3,13.1-29.3,29.3c0,16.1,13.1,29.3,29.3,29.3c16.1,0,29.3-13.1,29.3-29.3C78.2,49.9,65.1,36.7,49,36.7z"/>
			</g>
		</g>
		<g class="st2">
			<g>
				<g>
					<g>
						<path class="st0" d="M59.6,71c0,2.3-0.8,4-2.3,5.2c-1.5,1.2-3.8,1.8-6.7,1.8h-9V54h8.6c1.2,0,2.4,0.1,3.4,0.4
							c1,0.3,1.9,0.7,2.6,1.2c0.7,0.5,1.3,1.2,1.7,1.9c0.4,0.8,0.6,1.6,0.6,2.6c0,1.2-0.3,2.2-0.9,3C57,64,56.1,64.7,55,65.2
							c0.8,0.2,1.5,0.5,2,0.8c0.6,0.4,1.1,0.8,1.5,1.3c0.4,0.5,0.7,1.1,0.9,1.7S59.6,70.3,59.6,71z M44.8,64h5.4
							c1.8,0,3.1-0.3,3.9-0.8c0.8-0.5,1.2-1.5,1.2-2.8c0-0.6-0.1-1.1-0.3-1.6c-0.2-0.4-0.5-0.8-0.9-1.1c-0.4-0.3-1-0.5-1.7-0.7
							c-0.7-0.1-1.5-0.2-2.5-0.2l-5,0V64z M44.8,75.1h5.8c3.8,0,5.7-1.4,5.7-4.1c0-0.7-0.1-1.3-0.3-1.9c-0.2-0.5-0.5-1-1-1.3
							c-0.5-0.3-1.1-0.6-1.9-0.8c-0.8-0.2-1.8-0.3-2.9-0.3l-5.4,0V75.1z"/>
					</g>
				</g>
			</g>
			<g>
				<g>
					<rect x="38.4" y="54" class="st0" width="6.5" height="2.9"/>
				</g>
			</g>
			<g>
				<g>
					<rect x="38.4" y="75.1" class="st0" width="6.5" height="2.9"/>
				</g>
			</g>
			<g>
				<g>
					<polygon class="st0" points="52.1,50.4 52.1,56.8 49.2,56.8 49.2,50.4 					"/>
				</g>
			</g>
			<g>
				<g>
					<rect x="43.8" y="50.4" class="st0" width="2.9" height="6.4"/>
				</g>
			</g>
			<g>
				<g>
					<rect x="49.2" y="75.1" class="st0" width="2.9" height="6.4"/>
				</g>
			</g>
			<g>
				<g>
					<rect x="43.8" y="75.1" class="st0" width="2.8" height="6.4"/>
				</g>
			</g>
		</g>
		<g class="st2">
			<g>
				<g>
					<polygon class="st0" points="40.5,40 40.5,31.7 32,31.7 48.9,6.2 65.8,31.7 57.3,31.7 57.3,40 					"/>
				</g>
			</g>
			<g>
				<g>
					<path class="st0" d="M48.9,11.3l11.6,17.6h-6v8.3H43.3v-8.3h-6L48.9,11.3L48.9,11.3z M48.9,1l-4.7,7.1L32.5,25.8l-5.8,8.7h10.5
						h0.4v2.7v5.6h5.6h11.2h5.6v-5.6v-2.7h0.4H71l-5.8-8.7L53.6,8.2L48.9,1L48.9,1z"/>
				</g>
			</g>
		</g>
		<g class="st2">
			<g>
				<polygon class="st0" points="60.5,28.9 48.9,11.3 37.2,28.9 43.3,28.9 43.3,42.8 54.5,42.8 54.5,28.9 				"/>
			</g>
			<g>
				<path class="st4" d="M56.4,44.7h-15V30.8h-7.6L48.9,7.9L64,30.8h-7.6V44.7z M45.2,40.9h7.5V27H57l-8.1-12.3L40.7,27h4.4V40.9z"
					/>
			</g>
		</g>
		<g class="st2">
			<g>
				<path class="st0" d="M49,92.5c-14.6,0-26.6-11.9-26.6-26.6c0-14.6,11.9-26.6,26.6-26.6c14.6,0,26.6,11.9,26.6,26.6
					C75.6,80.6,63.6,92.5,49,92.5z M49,43.2c-12.6,0-22.8,10.2-22.8,22.8c0,12.6,10.2,22.8,22.8,22.8c12.6,0,22.8-10.2,22.8-22.8
					C71.8,53.4,61.6,43.2,49,43.2z"/>
			</g>
		</g>
	</g>
	<g class="st2">
		<g>
			<path class="st4" d="M50.4,95.2c-18,0-32.6-14.6-32.6-32.6c0-18,14.6-32.6,32.6-32.6S83,44.6,83,62.6
				C83,80.6,68.4,95.2,50.4,95.2z"/>
		</g>
		<g>
			<g>
				<path class="st0" d="M78.1,62.6c0,15.2-12.4,27.7-27.7,27.7c-15.3,0-27.7-12.4-27.7-27.7c0-15.3,12.4-27.7,27.7-27.7
					C65.6,34.9,78.1,47.4,78.1,62.6z M76,62.6C76,48.5,64.5,37,50.4,37c-14.1,0-25.6,11.5-25.6,25.6c0,14.1,11.5,25.6,25.6,25.6
					C64.5,88.2,76,76.7,76,62.6z"/>
			</g>
		</g>
		<g>
			<polygon class="st4" points="61.7,26.3 57.7,26.3 57.6,31 43.1,31 43.1,26.3 39.1,26.3 35.7,26.3 37.6,23.4 48.9,6.3 50.4,4 
				51.9,6.3 63.2,23.4 65.1,26.3 			"/>
		</g>
		<g>
			<g>
				<path class="st0" d="M60.1,64.5c-0.4-0.5-0.9-0.9-1.4-1.3c-0.6-0.4-1.2-0.6-2-0.8L55,62l1.6-0.7c1.2-0.6,2-1.2,2.6-2
					c0.5-0.8,0.8-1.8,0.8-2.9c0-0.9-0.2-1.7-0.6-2.5c-0.4-0.7-0.9-1.3-1.6-1.9c-0.7-0.5-1.6-0.9-2.6-1.2c-0.3-0.1-0.6-0.1-1-0.1
					c-0.2,0-0.4,0-0.6-0.1l-0.5-0.1l0-4h-1.9v3.8h-3.9v-3.8l-1.9,0v3.8h-5.9v1.9H43v21h-3.5V75h5.9v3.9h1.9V75h3.9v3.9h1.9v-4l0.6,0
					c2.5-0.2,4.2-0.7,5.4-1.6c1.5-1.2,2.2-2.9,2.2-5.1c0-0.6-0.1-1.3-0.3-1.9C60.8,65.6,60.5,65,60.1,64.5z M45.3,52.1l6.1,0
					c0.9,0,2,0.1,2.8,0.3c0.8,0.2,1.5,0.4,2,0.8c0.6,0.4,1,0.9,1.2,1.5c0.2,0.5,0.4,1.2,0.4,1.9c0,1.6-0.5,2.8-1.6,3.6
					c-1,0.7-2.5,1-4.5,1h-6.4V52.1z M52.2,73.1h-6.9V62.9h6.4c1.3,0,2.4,0.1,3.3,0.3c1,0.2,1.7,0.5,2.3,0.9c0.6,0.4,1,1,1.3,1.7
					c0.2,0.6,0.4,1.4,0.4,2.2C58.9,71.4,56.6,73.1,52.2,73.1z"/>
			</g>
		</g>
	</g>
</g>
<g id="Calque_3" class="st1">
	<g class="st2">
		<g>
			<path class="st4" d="M80.4,15.3c-11.5,0-18-2.1-21.5-3.9c-3.3-1.7-4.4-3.4-4.5-3.7c-0.7-1.6-2.2-2.6-4-2.6h0h0h0
				c-1.8,0-3.4,1-4.1,2.6c-0.1,0.2-1.2,2-4.7,3.7c-3.4,1.8-9.9,3.9-21.3,3.9c-2.5,0-4.5,2-4.5,4.4v42c0,4.6,1.8,9.3,5.3,13.9
				c2.7,3.5,6.3,7,10.9,10.3c7.7,5.6,15.5,9.1,16.4,9.5c0.6,0.3,1.2,0.4,1.8,0.4c0.6,0,1.3-0.1,1.8-0.4c0.8-0.4,8.7-3.9,16.4-9.5
				c4.6-3.4,8.3-6.8,10.9-10.3c3.5-4.6,5.3-9.3,5.3-13.9v-42C84.9,17.3,82.9,15.3,80.4,15.3z"/>
			<path class="st4" d="M50.4,98c-0.9,0-1.8-0.2-2.7-0.6c-0.3-0.1-8.6-3.8-16.8-9.7c-4.8-3.5-8.6-7.1-11.4-10.7
				c-3.8-5-5.7-10.1-5.7-15.2v-42c0-3.6,2.9-6.5,6.5-6.5c10.9,0,17.1-2,20.3-3.6c2.9-1.5,3.8-2.9,3.8-2.9c1-2.1,3.3-3.7,5.9-3.7
				c2.7,0.1,4.9,1.5,6,3.8l0,0c0,0,0.9,1.3,3.6,2.7c3.2,1.7,9.4,3.7,20.5,3.7c3.6,0,6.5,2.9,6.5,6.5v42c0,5.1-1.9,10.2-5.7,15.2
				c-2.8,3.6-6.6,7.3-11.4,10.7C62,93.4,54,97,53.1,97.4C52.3,97.8,51.4,98,50.4,98z M50.4,7.1c-1,0-1.9,0.6-2.2,1.4
				c-0.4,0.8-1.8,2.8-5.6,4.7c-3.6,1.9-10.5,4.1-22.2,4.1c-1.3,0-2.4,1.1-2.4,2.4v42c0,4.2,1.6,8.5,4.9,12.7
				c2.5,3.3,6.1,6.7,10.5,9.9c7.8,5.7,15.7,9.2,16,9.3c0.7,0.3,1.4,0.3,1.9,0c0.9-0.4,8.5-3.8,16.1-9.3c4.4-3.2,8-6.6,10.5-9.9
				c3.2-4.2,4.9-8.5,4.9-12.7v-42c0-1.3-1.1-2.4-2.4-2.4c-12,0-18.8-2.3-22.4-4.2c-3.8-2-5.1-4.1-5.3-4.5
				C52.2,7.7,51.4,7.2,50.4,7.1z"/>
		</g>
		<g>
			<path class="st0" d="M50.4,76.9c-15.3,0-27.8-12.5-27.8-27.8c0-15.3,12.5-27.8,27.8-27.8c15.3,0,27.8,12.5,27.8,27.8
				C78.2,64.4,65.7,76.9,50.4,76.9z M50.4,25.4C37.3,25.4,26.7,36,26.7,49c0,13.1,10.6,23.7,23.7,23.7c13.1,0,23.7-10.6,23.7-23.7
				C74.1,36,63.5,25.4,50.4,25.4z"/>
		</g>
		<g>
			<g>
				<g>
					<path class="st0" d="M61.9,54.5c0,2.5-0.8,4.3-2.5,5.6c-1.6,1.3-4.1,1.9-7.2,1.9h-9.8v-26h9.2c1.4,0,2.6,0.2,3.7,0.5
						c1.1,0.3,2,0.7,2.8,1.3c0.8,0.6,1.4,1.3,1.8,2.1c0.4,0.8,0.6,1.7,0.6,2.8c0,1.3-0.3,2.4-0.9,3.3c-0.6,0.9-1.6,1.7-2.8,2.3
						c0.8,0.2,1.6,0.5,2.2,0.9c0.6,0.4,1.2,0.9,1.6,1.4c0.4,0.6,0.7,1.2,0.9,1.8C61.8,53.1,61.9,53.8,61.9,54.5z M45.9,46.9h5.8
						c1.9,0,3.3-0.3,4.2-0.9c0.9-0.6,1.4-1.6,1.4-3c0-0.6-0.1-1.2-0.3-1.7c-0.2-0.5-0.5-0.9-1-1.2c-0.5-0.3-1.1-0.6-1.8-0.7
						c-0.7-0.2-1.7-0.2-2.8-0.2h-5.4V46.9z M45.9,58.9h6.3c4.1,0,6.1-1.5,6.1-4.5c0-0.8-0.1-1.4-0.3-2c-0.2-0.6-0.6-1-1.1-1.4
						c-0.5-0.4-1.2-0.6-2-0.8C54,50.1,53,50,51.7,50h-5.8V58.9z"/>
				</g>
			</g>
			<g>
				<rect x="38.9" y="36.1" class="st0" width="7" height="3.1"/>
			</g>
			<g>
				<rect x="38.9" y="58.9" class="st0" width="7" height="3.1"/>
			</g>
			<g>
				<rect x="50.6" y="32.2" class="st0" width="3.1" height="6.9"/>
			</g>
			<g>
				<rect x="44.8" y="32.2" class="st0" width="3.1" height="6.9"/>
			</g>
			<g>
				<rect x="50.6" y="58.9" class="st0" width="3.1" height="6.9"/>
			</g>
			<g>
				<rect x="44.8" y="58.9" class="st0" width="3.1" height="6.9"/>
			</g>
		</g>
	</g>
</g>
<g id="Calque_4" class="st1">
	<g class="st2">
		<g>
			<path class="st5" d="M49.9,97.3c-13.1,0-23.4-20.5-23.4-46.6c0-26.1,10.3-46.6,23.4-46.6c13.1,0,23.4,20.5,23.4,46.6
				C73.3,76.8,63,97.3,49.9,97.3z M49.9,8C39.3,8,30.4,27.6,30.4,50.7c0,23.1,8.9,42.6,19.5,42.6c10.6,0,19.5-19.5,19.5-42.6
				C69.4,27.6,60.5,8,49.9,8z"/>
		</g>
		<g>
			<path class="st4" d="M49.9,97.3c-13.1,0-23.4-20.5-23.4-46.6c0-26.1,10.3-46.6,23.4-46.6c13.1,0,23.4,20.5,23.4,46.6
				C73.3,76.8,63,97.3,49.9,97.3z M49.9,8C39.3,8,30.4,27.6,30.4,50.7c0,23.1,8.9,42.6,19.5,42.6c10.6,0,19.5-19.5,19.5-42.6
				C69.4,27.6,60.5,8,49.9,8z"/>
		</g>
		<g>
			<path class="st4" d="M72.7,81.7C62.6,81.7,50,77.8,38.2,71c-10.6-6.1-19.4-13.9-24.8-21.8C7.6,40.8,6.3,33,9.5,27.4
				c2.9-5,9.1-7.7,17.5-7.7c10.2,0,22.8,3.9,34.6,10.7C72.2,36.5,81,44.2,86.4,52.2c5.7,8.4,7.1,16.1,3.8,21.8
				C87.4,78.9,81.2,81.7,72.7,81.7z M27.1,23.6c-6.9,0-11.9,2-14.1,5.7c-2.4,4.2-1.1,10.6,3.7,17.6c5.1,7.5,13.5,14.8,23.5,20.6
				C51.4,74,63.2,77.7,72.7,77.7c6.9,0,11.9-2,14.1-5.7c2.4-4.2,1.1-10.6-3.7-17.6c-5.1-7.5-13.5-14.8-23.5-20.6
				C48.4,27.3,36.6,23.6,27.1,23.6z"/>
		</g>
		<g>
			<path class="st4" d="M27.1,81.7c-8.4,0-14.6-2.7-17.5-7.7c-3.3-5.7-1.9-13.4,3.8-21.8c5.4-8,14.3-15.7,24.8-21.8
				C50,23.6,62.6,19.7,72.7,19.7c8.4,0,14.6,2.7,17.5,7.7c3.3,5.7,1.9,13.4-3.8,21.8C81,57.1,72.2,64.9,61.6,71
				C49.8,77.8,37.2,81.7,27.1,81.7z M72.7,23.6c-9.5,0-21.4,3.7-32.6,10.2c-10.1,5.8-18.4,13.1-23.5,20.6c-4.7,7-6.1,13.4-3.7,17.6
				c2.1,3.7,7.1,5.7,14.1,5.7c9.5,0,21.4-3.7,32.6-10.2c10.1-5.8,18.4-13.1,23.5-20.6c4.8-7,6.1-13.4,3.7-17.6
				C84.7,25.7,79.7,23.6,72.7,23.6z"/>
		</g>
		<g>
			<path class="st4" d="M70.6,38.9c-3.1-2.4-6.3-4.7-9.9-6.8c-3.6-2.1-7.2-3.7-10.7-5.2c-3.5,1.5-7.1,3.1-10.7,5.2
				c-3.6,2.1-6.9,4.4-10,6.8c-0.5,3.8-0.8,7.7-0.8,11.8c0,4.1,0.3,8.1,0.8,11.8c3.1,2.4,6.3,4.7,9.9,6.8c3.6,2.1,7.2,3.7,10.7,5.2
				c3.6-1.5,7.1-3.1,10.7-5.2c3.6-2.1,6.9-4.4,9.9-6.8c0.5-3.8,0.8-7.7,0.8-11.8C71.4,46.6,71.1,42.6,70.6,38.9z"/>
			<path class="st4" d="M49.9,76.6l-0.8-0.3c-4.2-1.7-7.7-3.4-11-5.3c-3.3-1.9-6.5-4.1-10.2-6.9l-0.6-0.5l-0.1-0.8
				c-0.5-4.1-0.8-8.1-0.8-12.1c0-4,0.3-8,0.8-12.1l0.1-0.8l0.6-0.5c3.6-2.8,6.9-5,10.2-6.9c3.3-1.9,6.7-3.6,11-5.3l0.8-0.3l0.8,0.3
				c4.2,1.7,7.7,3.4,11,5.3c3.3,1.9,6.5,4.1,10.2,6.9l0.6,0.5l0.1,0.8c0.5,4,0.8,8.1,0.8,12.1c0,4-0.3,8-0.8,12.1l-0.1,0.8l-0.6,0.5
				c-3.6,2.8-6.9,5-10.2,6.9c-3.3,1.9-6.7,3.6-11,5.3L49.9,76.6z M31.1,61.4c3.2,2.5,6.1,4.4,9.1,6.1c2.9,1.7,6,3.2,9.7,4.8
				c3.7-1.6,6.8-3.1,9.7-4.8c2.9-1.7,5.8-3.7,9.1-6.1c0.4-3.6,0.7-7.2,0.7-10.8c0-3.6-0.2-7.2-0.7-10.7c-3.2-2.5-6.1-4.4-9.1-6.1
				c-2.9-1.7-6-3.2-9.7-4.8c-3.7,1.6-6.8,3.1-9.7,4.8c-2.9,1.7-5.8,3.7-9.1,6.1c-0.4,3.6-0.7,7.2-0.7,10.7
				C30.4,54.2,30.6,57.8,31.1,61.4z"/>
		</g>
		<g>
			<g>
				<g>
					<path class="st0" d="M61.5,56c0,2.3-0.8,4.1-2.3,5.3c-1.6,1.2-3.8,1.8-6.9,1.8h-9.2V38.5h8.8c1.3,0,2.5,0.1,3.5,0.4
						c1,0.3,1.9,0.7,2.7,1.2c0.7,0.5,1.3,1.2,1.7,2c0.4,0.8,0.6,1.6,0.6,2.6c0,1.2-0.3,2.2-0.9,3.1c-0.6,0.9-1.5,1.6-2.7,2.1
						c0.8,0.2,1.5,0.5,2.1,0.9c0.6,0.4,1.1,0.8,1.5,1.4c0.4,0.5,0.7,1.1,0.9,1.7C61.4,54.6,61.5,55.3,61.5,56z M46.4,48.8l5.5,0
						c1.8,0,3.1-0.3,4-0.9c0.8-0.6,1.3-1.5,1.3-2.9c0-0.6-0.1-1.1-0.3-1.6c-0.2-0.5-0.5-0.8-1-1.1c-0.4-0.3-1-0.5-1.7-0.7
						c-0.7-0.1-1.6-0.2-2.6-0.2l-5.2,0V48.8z M46.4,60.2h6c3.9,0,5.8-1.4,5.8-4.2c0-0.7-0.1-1.4-0.3-1.9c-0.2-0.5-0.5-1-1-1.3
						c-0.5-0.4-1.1-0.6-1.9-0.8c-0.8-0.2-1.8-0.3-3-0.3l-5.5,0V60.2z"/>
				</g>
			</g>
			<g>
				<rect x="39.7" y="38.5" class="st0" width="6.6" height="2.9"/>
			</g>
			<g>
				<rect x="39.7" y="60.2" class="st0" width="6.6" height="2.9"/>
			</g>
			<g>
				<polygon class="st0" points="53.8,34.9 53.8,41.5 50.9,41.5 50.8,34.9 				"/>
			</g>
			<g>
				<rect x="45.4" y="34.9" class="st0" width="2.9" height="6.6"/>
			</g>
			<g>
				<rect x="50.9" y="60.2" class="st0" width="2.9" height="6.6"/>
			</g>
			<g>
				<rect x="45.4" y="60.2" class="st0" width="2.9" height="6.6"/>
			</g>
		</g>
	</g>
</g>
<g id="Calque_5">
	<g>
		<g>
			<path class="st4" d="M74.7,64c0,3.9-3.2,7-7.1,7l-39.7,9.1c-3.9,0-7.1-3.2-7.1-7V28.1c0-3.9,3.2-7,7.1-7l39.7-9.1
				c3.9,0,7.1,3.2,7.1,7V64z"/>
			<path class="st4" d="M28.1,81.8h-0.2c-4.8,0-8.7-3.9-8.7-8.7V28.1c0-4.8,3.9-8.7,8.7-8.7l39.4-9.1c5-0.1,9.1,3.9,9.1,8.6V64
				c0,4.8-3.9,8.7-8.7,8.7L28.1,81.8z M67.6,13.5l-39.4,9.1c-3.4,0-5.8,2.5-5.8,5.4v45.1c0,2.9,2.3,5.3,5.2,5.4l39.5-9.1
				c3.4,0,5.8-2.5,5.8-5.4V18.9C73,16,70.6,13.5,67.6,13.5z"/>
		</g>
		<g>
			<path class="st0" d="M86.5,73.1c0,3.9-3.2,7-7.1,7H27.9c-3.9,0-7.1-3.2-7.1-7V28.1c0-3.9,3.2-7,7.1-7h51.6c3.9,0,7.1,3.2,7.1,7
				V73.1z"/>
			<path class="st4" d="M79.5,81.8H27.9c-4.8,0-8.7-3.9-8.7-8.7V28.1c0-4.8,3.9-8.7,8.7-8.7h51.6c4.8,0,8.7,3.9,8.7,8.7v45.1
				C88.2,77.9,84.3,81.8,79.5,81.8z M27.9,22.6c-3,0-5.4,2.4-5.4,5.4v45.1c0,3,2.4,5.4,5.4,5.4h51.6c3,0,5.4-2.4,5.4-5.4V28.1
				c0-3-2.4-5.4-5.4-5.4H27.9z"/>
		</g>
		<g>
			<path class="st4" d="M91.4,55.4c0,0.8-0.5,1.5-1.2,1.5H75.8c-0.7,0-1.2-0.7-1.2-1.5v-9.6c0-0.8,0.5-1.5,1.2-1.5h14.3
				c0.6,0,1.2,0.7,1.2,1.5V55.4z"/>
			<path class="st4" d="M90.2,58.5H75.8c-1.6,0-2.8-1.4-2.8-3.1v-9.6c0-1.7,1.3-3.1,2.8-3.1h14.3c1.6,0,2.8,1.4,2.8,3.1v9.6
				C93,57.1,91.7,58.5,90.2,58.5z M76.3,55.2h13.4l0-9.3H76.3L76.3,55.2z"/>
		</g>
		<g>
			<path class="st4" d="M62.3,56.7c0,14.9-12.1,27-27,27s-27-12.1-27-27c0-14.9,12.1-27,27-27S62.3,41.8,62.3,56.7z"/>
			<path class="st4" d="M35.3,85.3c-15.8,0-28.6-12.9-28.6-28.6c0-15.8,12.8-28.6,28.6-28.6c15.8,0,28.6,12.8,28.6,28.6
				C63.9,72.5,51.1,85.3,35.3,85.3z M35.3,31.3c-14,0-25.4,11.4-25.4,25.4s11.4,25.4,25.4,25.4c14,0,25.4-11.4,25.4-25.4
				S49.3,31.3,35.3,31.3z"/>
		</g>
		<g>
			<path class="st0" d="M35.3,79.7c-12.7,0-23-10.3-23-23.1c0-12.7,10.3-23,23-23s23,10.3,23,23C58.4,69.4,48,79.7,35.3,79.7z
				 M35.3,36.9c-10.9,0-19.8,8.9-19.8,19.8c0,10.9,8.9,19.8,19.8,19.8c10.9,0,19.8-8.9,19.8-19.8C55.1,45.8,46.2,36.9,35.3,36.9z"/>
		</g>
		<g>
			<g>
				<g>
					<path class="st0" d="M45,62c0,2-0.7,3.5-2,4.5c-1.3,1-3.3,1.6-5.8,1.6h-7.8V47.2h7.4c1.1,0,2.1,0.1,3,0.4
						c0.9,0.3,1.6,0.6,2.3,1.1c0.6,0.5,1.1,1,1.4,1.7c0.3,0.7,0.5,1.4,0.5,2.2c0,1-0.3,1.9-0.7,2.6c-0.5,0.7-1.3,1.3-2.3,1.8
						c0.7,0.2,1.3,0.4,1.8,0.7c0.5,0.3,0.9,0.7,1.3,1.2c0.3,0.4,0.6,0.9,0.8,1.5C44.9,60.9,45,61.4,45,62z M32.1,56l4.6,0
						c1.5,0,2.7-0.2,3.4-0.7c0.7-0.5,1.1-1.3,1.1-2.5c0-0.5-0.1-1-0.2-1.3c-0.2-0.4-0.4-0.7-0.8-1c-0.4-0.2-0.9-0.4-1.5-0.6
						c-0.6-0.1-1.3-0.2-2.2-0.2l-4.4,0V56z M32.1,65.6h5c3.3,0,4.9-1.2,4.9-3.6c0-0.6-0.1-1.2-0.3-1.6c-0.2-0.5-0.5-0.8-0.9-1.1
						c-0.4-0.3-0.9-0.5-1.6-0.7c-0.7-0.1-1.5-0.2-2.6-0.2l-4.7,0V65.6z"/>
				</g>
			</g>
			<g>
				<rect x="26.5" y="47.2" class="st0" width="5.6" height="2.5"/>
			</g>
			<g>
				<rect x="26.5" y="65.6" class="st0" width="5.6" height="2.5"/>
			</g>
			<g>
				<polygon class="st0" points="38.4,44.1 38.4,49.7 35.9,49.7 35.9,44.1 				"/>
			</g>
			<g>
				<rect x="31.3" y="44.1" class="st0" width="2.5" height="5.6"/>
			</g>
			<g>
				<rect x="35.9" y="65.6" class="st0" width="2.5" height="5.6"/>
			</g>
			<g>
				<rect x="31.3" y="65.6" class="st0" width="2.5" height="5.6"/>
			</g>
		</g>
		<g>
			<path class="st0" d="M86.3,52.2h-6.7c-0.9,0-1.6-0.7-1.6-1.6c0-0.9,0.7-1.6,1.6-1.6h6.7c0.9,0,1.6,0.7,1.6,1.6
				C88,51.5,87.2,52.2,86.3,52.2z"/>
		</g>
	</g>
</g>
</svg>
